<svg width="40" height="40" viewBox="0 0 40 40" fill="none" xmlns="http://www.w3.org/2000/svg">
<path d="M19.9998 38.4844L0.79657 31.3987V8.60132L19.9998 15.687V38.4844Z" fill="#C9C9C9"/>
<path d="M20 38.4844L39.2032 31.3987V8.60132L20 15.687V38.4844Z" fill="#C9C9C9"/>
<path d="M39.203 8.60133L19.9998 15.687L0.79657 8.60133L19.9998 1.51562L39.203 8.60133Z" fill="#C9C9C9"/>
<path d="M14.5816 23.8977L5.97601 20.7224V10.5061L14.5816 13.6814V23.8977Z" fill="#EDEDED"/>
<path d="M23.1872 10.5061L14.5816 13.6814L5.97601 10.5061L14.5816 7.33081L23.1872 10.5061Z" fill="#EDEDED"/>
<path d="M35.7401 28.4218L27.4532 31.4795C27.0403 31.6319 26.8292 32.0901 26.9815 32.503C27.1003 32.8248 27.4049 33.0241 27.7292 33.0241C27.8207 33.0241 27.9139 33.0082 28.0049 32.9747L36.2918 29.917C36.7047 29.7646 36.9159 29.3064 36.7635 28.8935C36.6111 28.4806 36.153 28.2695 35.7401 28.4218Z" fill="#686E7E"/>
<path d="M25.175 32.3203L24.8241 32.4497C24.4112 32.6021 24.2 33.0603 24.3523 33.4731C24.4711 33.795 24.7758 33.9943 25.1 33.9943C25.1916 33.9943 25.2848 33.9784 25.3758 33.9449L25.7267 33.8154C26.1395 33.6631 26.3508 33.2049 26.1984 32.7921C26.0461 32.379 25.5879 32.1679 25.175 32.3203Z" fill="#686E7E"/>
<path d="M35.7401 25.1749L29.1913 27.5913C28.7784 27.7437 28.5672 28.2019 28.7195 28.6148C28.8384 28.9366 29.143 29.1359 29.4672 29.1359C29.5588 29.1359 29.652 29.12 29.743 29.0865L36.2918 26.6701C36.7047 26.5177 36.9159 26.0595 36.7635 25.6466C36.6111 25.2337 36.153 25.0227 35.7401 25.1749Z" fill="#686E7E"/>
<path d="M35.7401 21.9618L29.1913 24.3782C28.7784 24.5305 28.5672 24.9887 28.7195 25.4016C28.8384 25.7235 29.143 25.9228 29.4672 25.9228C29.5588 25.9228 29.652 25.9069 29.743 25.8733L36.2918 23.4569C36.7047 23.3046 36.9159 22.8464 36.7635 22.4335C36.6111 22.0206 36.153 21.8096 35.7401 21.9618Z" fill="#686E7E"/>
<path d="M39.4791 7.85384L20.2759 0.768213C20.0978 0.702588 19.9022 0.702588 19.7242 0.768213L0.521016 7.85384L0.520859 7.85446C0.457969 7.87774 0.3975 7.90853 0.34125 7.94767C0.127422 8.09673 0 8.34087 0 8.60142V31.3988C0 31.7324 0.207891 32.0308 0.520938 32.1463L19.7241 39.232C19.8137 39.265 19.907 39.2812 19.9999 39.2812C20.0938 39.2812 20.1871 39.2642 20.2755 39.2315L20.2759 39.232L39.4791 32.1463C39.7921 32.0308 40 31.7325 40 31.3988V8.60142C40 8.26767 39.7921 7.96939 39.4791 7.85384ZM6.77289 11.6558L13.7848 14.2431V22.7543L6.77289 20.167V11.6558ZM14.5816 12.832L8.27789 10.5061L14.5816 8.18009L20.8854 10.506L14.5816 12.832ZM20 2.36517L36.9013 8.60149L20 14.8377L16.8749 13.6846L23.4631 11.2536C23.7762 11.1381 23.9841 10.8398 23.9841 10.506C23.9841 10.1724 23.7762 9.87399 23.4631 9.75845L14.8575 6.58314C14.6795 6.51751 14.4839 6.51751 14.3058 6.58314L5.96742 9.65993L3.09867 8.60134L20 2.36517ZM1.59359 9.74478L5.17922 11.0679V20.7224C5.17922 21.0561 5.38711 21.3545 5.70016 21.47L14.3057 24.6454C14.3952 24.6784 14.4886 24.6946 14.5815 24.6946C14.7423 24.6946 14.9016 24.646 15.0372 24.5515C15.2509 24.4025 15.3784 24.1584 15.3784 23.8978V14.8312L19.203 16.2424V37.3411L1.59359 30.8435V9.74478ZM20.7968 37.3411V16.2424L38.4063 9.74478V30.8435L20.7968 37.3411Z" fill="#686E7E"/>
</svg>
