<svg width="236" height="154" viewBox="0 0 236 154" fill="none" xmlns="http://www.w3.org/2000/svg">
<path d="M145.781 102.297H134V131.2H157.719V115.911H145.781V102.297Z" fill="#C9C9C9"/>
<path d="M131.108 91.144H81V120.99H131.108V91.144Z" fill="#EDEDED"/>
<path d="M131.108 120.99H81V131.2H131.108V120.99Z" fill="#C9C9C9"/>
<path d="M92.655 136.855C95.7782 136.855 98.31 134.323 98.31 131.2C98.31 128.077 95.7782 125.545 92.655 125.545C89.5318 125.545 87 128.077 87 131.2C87 134.323 89.5318 136.855 92.655 136.855Z" fill="#EDEDED"/>
<path d="M144.655 136.855C147.778 136.855 150.31 134.323 150.31 131.2C150.31 128.077 147.778 125.545 144.655 125.545C141.532 125.545 139 128.077 139 131.2C139 134.323 141.532 136.855 144.655 136.855Z" fill="#EDEDED"/>
<path d="M144.105 102.297H144V115.911H155.938V115.806L144.105 102.297Z" fill="#EDEDED"/>
<rect x="172" y="132" width="8" height="40" rx="2" transform="rotate(-90 172 132)" fill="#D27156"/>
<rect x="172" y="116" width="8" height="64" rx="2" transform="rotate(-90 172 116)" fill="#D27156"/>
<rect x="172" y="100" width="8" height="40" rx="2" transform="rotate(-90 172 100)" fill="#D27156"/>
<rect x="138" y="64" width="8" height="40" rx="2" transform="rotate(180 138 64)" fill="#D27156"/>
<rect x="122" y="64" width="8" height="64" rx="2" transform="rotate(180 122 64)" fill="#D27156"/>
<rect x="106" y="64" width="8" height="40" rx="2" transform="rotate(180 106 64)" fill="#D27156"/>
<rect x="64" y="92" width="8" height="40" rx="2" transform="rotate(90 64 92)" fill="#D27156"/>
<rect x="64" y="108" width="8" height="64" rx="2" transform="rotate(90 64 108)" fill="#D27156"/>
<rect x="64" y="124" width="8" height="40" rx="2" transform="rotate(90 64 124)" fill="#D27156"/>
<path d="M137.241 132.794C137.97 136.026 140.862 138.449 144.311 138.449C147.76 138.449 150.653 136.026 151.381 132.794H156.406C157.287 132.794 158 132.08 158 131.2V115.911C158 115.481 157.829 115.093 157.553 114.806C157.585 114.775 157.605 114.756 157.605 114.756L145.772 101.247C145.772 101.247 145.743 101.26 145.694 101.279C145.402 100.928 144.961 100.704 144.468 100.704H134.281V91.1446C134.281 90.2646 133.567 89.551 132.687 89.551H82.5781C81.698 89.551 80.9845 90.2646 80.9845 91.1446V126.151H79.5936C78.7134 126.151 78 126.864 78 127.744C78 128.624 78.7134 129.338 79.5936 129.338H80.9845V131.2C80.9845 132.08 81.698 132.794 82.5781 132.794H85.7186C86.4469 136.026 89.3392 138.449 92.7884 138.449C96.2377 138.449 99.13 136.026 99.8584 132.794H137.241V132.794H137.241ZM146.062 106.416L152.984 114.317H146.062V106.416ZM131.094 119.396H84.1717V92.7381H131.093V119.396H131.094ZM84.1717 122.584H131.093V129.606H99.8583C99.13 126.374 96.2377 123.952 92.7883 123.952C89.3391 123.952 86.4467 126.374 85.7184 129.606H84.1717C84.1717 129.606 84.1717 122.584 84.1717 122.584ZM92.7884 135.261C90.5491 135.261 88.7272 133.439 88.7272 131.2C88.7272 128.961 90.5491 127.139 92.7884 127.139C95.0278 127.139 96.8498 128.961 96.8498 131.2C96.8497 133.439 95.0278 135.261 92.7884 135.261ZM144.311 135.261C142.072 135.261 140.25 133.439 140.25 131.2C140.25 128.961 142.072 127.139 144.311 127.139C146.55 127.139 148.373 128.961 148.373 131.2C148.373 133.439 146.55 135.261 144.311 135.261ZM134.281 103.891H142.875V115.911C142.875 116.791 143.588 117.504 144.468 117.504H154.813V129.606H151.381C150.653 126.374 147.76 123.952 144.311 123.952C140.862 123.952 137.969 126.374 137.241 129.606H134.281V103.891H134.281Z" fill="#686E7E"/>
<path d="M127.243 114.478H113.857C112.976 114.478 112.263 115.191 112.263 116.071C112.263 116.951 112.976 117.665 113.857 117.665H127.243C128.123 117.665 128.837 116.951 128.837 116.071C128.837 115.191 128.123 114.478 127.243 114.478Z" fill="#686E7E"/>
<path d="M108.917 114.478H107.96C107.08 114.478 106.367 115.191 106.367 116.071C106.367 116.951 107.08 117.665 107.96 117.665H108.917C109.797 117.665 110.51 116.951 110.51 116.071C110.51 115.191 109.797 114.478 108.917 114.478Z" fill="#686E7E"/>
</svg>
