<svg width="236" height="154" viewBox="0 0 236 154" fill="none" xmlns="http://www.w3.org/2000/svg">
<path d="M118 145.424L85.3542 133.378V94.6222L118 106.668V145.424Z" fill="#C9C9C9"/>
<path d="M118 145.424L150.645 133.378V94.6222L118 106.668V145.424Z" fill="#C9C9C9"/>
<path d="M150.645 94.6222L118 106.668L85.3542 94.6222L118 82.5765L150.645 94.6222Z" fill="#C9C9C9"/>
<path d="M108.789 120.626L94.1592 115.228V97.8602L108.789 103.258V120.626Z" fill="#EDEDED"/>
<path d="M123.418 97.8602L108.789 103.258L94.1592 97.8602L108.789 92.4622L123.418 97.8602Z" fill="#EDEDED"/>
<path d="M144.758 128.317L130.67 133.515C129.969 133.774 129.61 134.553 129.869 135.255C130.071 135.802 130.588 136.141 131.14 136.141C131.295 136.141 131.454 136.114 131.608 136.057L145.696 130.859C146.398 130.6 146.757 129.821 146.498 129.119C146.239 128.417 145.46 128.058 144.758 128.317Z" fill="#686E7E"/>
<path d="M126.797 134.944L126.201 135.164C125.499 135.423 125.14 136.202 125.399 136.904C125.601 137.451 126.119 137.79 126.67 137.79C126.826 137.79 126.984 137.763 127.139 137.706L127.735 137.486C128.437 137.227 128.796 136.448 128.537 135.746C128.278 135.044 127.499 134.685 126.797 134.944Z" fill="#686E7E"/>
<path d="M144.758 122.797L133.625 126.905C132.923 127.164 132.564 127.943 132.823 128.645C133.025 129.192 133.543 129.531 134.094 129.531C134.25 129.531 134.408 129.504 134.563 129.447L145.696 125.339C146.398 125.08 146.757 124.301 146.498 123.599C146.239 122.897 145.46 122.539 144.758 122.797Z" fill="#686E7E"/>
<path d="M144.758 117.335L133.625 121.443C132.923 121.702 132.564 122.48 132.823 123.182C133.025 123.73 133.543 124.068 134.094 124.068C134.25 124.068 134.408 124.041 134.563 123.984L145.696 119.876C146.398 119.617 146.757 118.838 146.498 118.137C146.239 117.435 145.46 117.076 144.758 117.335Z" fill="#686E7E"/>
<path d="M151.114 93.3513L118.469 81.3058C118.166 81.1942 117.834 81.1942 117.531 81.3058L84.8857 93.3513L84.8855 93.3524C84.7785 93.392 84.6758 93.4443 84.5801 93.5108C84.2166 93.7643 84 94.1793 84 94.6222V133.378C84 133.945 84.3534 134.452 84.8856 134.649L117.531 146.694C117.683 146.75 117.842 146.778 118 146.778C118.159 146.778 118.318 146.749 118.468 146.693L118.469 146.694L151.114 134.649C151.647 134.452 152 133.945 152 133.378V94.6222C152 94.0549 151.647 93.5478 151.114 93.3513ZM95.5139 99.8147L107.434 104.213V118.682L95.5139 114.284V99.8147ZM108.789 101.814L98.0724 97.8602L108.789 93.906L119.505 97.8601L108.789 101.814ZM118 84.0206L146.732 94.6224L118 105.224L112.687 103.264L123.887 99.1309C124.419 98.9345 124.773 98.4274 124.773 97.8601C124.773 97.2928 124.419 96.7856 123.887 96.5892L109.258 91.1911C108.955 91.0796 108.623 91.0796 108.32 91.1911L94.1446 96.4217L89.2677 94.6221L118 84.0206ZM86.7091 96.5659L92.8047 98.8152V115.228C92.8047 115.795 93.1581 116.302 93.6903 116.499L108.32 121.897C108.472 121.953 108.631 121.981 108.789 121.981C109.062 121.981 109.333 121.898 109.563 121.737C109.927 121.484 110.143 121.069 110.143 120.626V105.213L116.645 107.612V143.48L86.7091 132.434V96.5659ZM119.355 143.48V107.612L149.291 96.5659V132.434L119.355 143.48Z" fill="#686E7E"/>
<rect x="172" y="132" width="8" height="40" rx="2" transform="rotate(-90 172 132)" fill="#D27156"/>
<rect x="172" y="116" width="8" height="64" rx="2" transform="rotate(-90 172 116)" fill="#D27156"/>
<rect x="172" y="100" width="8" height="40" rx="2" transform="rotate(-90 172 100)" fill="#D27156"/>
<rect x="138" y="64" width="8" height="40" rx="2" transform="rotate(180 138 64)" fill="#D27156"/>
<rect x="122" y="64" width="8" height="64" rx="2" transform="rotate(180 122 64)" fill="#D27156"/>
<rect x="106" y="64" width="8" height="40" rx="2" transform="rotate(180 106 64)" fill="#D27156"/>
<rect x="64" y="92" width="8" height="40" rx="2" transform="rotate(90 64 92)" fill="#D27156"/>
<rect x="64" y="108" width="8" height="64" rx="2" transform="rotate(90 64 108)" fill="#D27156"/>
<rect x="64" y="124" width="8" height="40" rx="2" transform="rotate(90 64 124)" fill="#D27156"/>
</svg>
