<svg width="236" height="154" viewBox="0 0 236 154" fill="none" xmlns="http://www.w3.org/2000/svg">
<path d="M147 99.0001L124.24 82V94.1768H89V103.823H124.24V116L147 99.0001Z" fill="#C9C9C9"/>
<path d="M89 129L111.761 146V133.823H147V124.177H111.761V112L89 129Z" fill="#EDEDED"/>
<path d="M124.165 117.477C123.962 117.477 123.758 117.432 123.569 117.339C123.107 117.112 122.814 116.642 122.814 116.127V105.058H89.3523C88.6065 105.058 88.0018 104.454 88.0018 103.708V93.8694C88.0018 93.1234 88.6065 92.5188 89.3523 92.5188H122.814V81.4503C122.814 80.9355 123.107 80.4655 123.569 80.2382C124.031 80.0109 124.582 80.0665 124.99 80.3807L147.474 97.7191C147.806 97.9748 148 98.3698 148 98.7886C148 99.2075 147.806 99.6025 147.474 99.8582L124.989 117.196C124.749 117.382 124.458 117.477 124.165 117.477ZM90.7029 102.357H124.165C124.911 102.357 125.515 102.962 125.515 103.708V113.38L144.437 98.7886L125.515 84.1974V93.8695C125.515 94.6154 124.911 95.2201 124.165 95.2201H90.7029V102.357Z" fill="#686E7E"/>
<path d="M111.836 147.9C111.543 147.9 111.252 147.805 111.011 147.619L88.5269 130.281C88.1953 130.025 88.0009 129.63 88.0009 129.212C88.0009 128.793 88.1952 128.398 88.5269 128.142L111.011 110.804C111.419 110.489 111.97 110.434 112.432 110.661C112.894 110.888 113.187 111.359 113.187 111.873V122.942H146.649C147.394 122.942 147.999 123.547 147.999 124.293V134.131C147.999 134.877 147.394 135.481 146.649 135.481H113.187V146.55C113.187 147.065 112.894 147.535 112.432 147.762C112.243 147.855 112.039 147.9 111.836 147.9ZM91.5634 129.212L110.485 143.803V134.131C110.485 133.385 111.09 132.78 111.836 132.78H145.298V125.643H111.836C111.09 125.643 110.485 125.038 110.485 124.292V114.62L91.5634 129.212Z" fill="#686E7E"/>
<path d="M107.259 138.688C106.97 138.688 106.679 138.596 106.434 138.406L106.131 138.171C105.541 137.715 105.433 136.866 105.889 136.276C106.346 135.687 107.195 135.579 107.784 136.035L108.087 136.27C108.677 136.726 108.785 137.575 108.328 138.164C108.062 138.508 107.663 138.688 107.259 138.688Z" fill="#686E7E"/>
<path d="M103.476 135.759C103.187 135.759 102.896 135.667 102.65 135.476L97.0492 131.14C96.4593 130.684 96.3514 129.835 96.808 129.246C97.2647 128.656 98.1128 128.548 98.7027 129.004L104.304 133.34C104.893 133.797 105.001 134.645 104.545 135.235C104.279 135.579 103.879 135.759 103.476 135.759Z" fill="#686E7E"/>
<rect x="172" y="132" width="8" height="40" rx="2" transform="rotate(-90 172 132)" fill="#D27156"/>
<rect x="172" y="116" width="8" height="64" rx="2" transform="rotate(-90 172 116)" fill="#D27156"/>
<rect x="172" y="100" width="8" height="40" rx="2" transform="rotate(-90 172 100)" fill="#D27156"/>
<rect x="138" y="64" width="8" height="40" rx="2" transform="rotate(180 138 64)" fill="#D27156"/>
<rect x="122" y="64" width="8" height="64" rx="2" transform="rotate(180 122 64)" fill="#D27156"/>
<rect x="106" y="64" width="8" height="40" rx="2" transform="rotate(180 106 64)" fill="#D27156"/>
<rect x="64" y="92" width="8" height="40" rx="2" transform="rotate(90 64 92)" fill="#D27156"/>
<rect x="64" y="108" width="8" height="64" rx="2" transform="rotate(90 64 108)" fill="#D27156"/>
<rect x="64" y="124" width="8" height="40" rx="2" transform="rotate(90 64 124)" fill="#D27156"/>
</svg>
