<svg width="24" height="24" viewBox="0 0 24 24" fill="none" xmlns="http://www.w3.org/2000/svg">
<path fill-rule="evenodd" clip-rule="evenodd" d="M12 0C5.37258 0 0 5.37258 0 12C0 18.6274 5.37258 24 12 24C18.6274 24 24 18.6274 24 12C24 5.37258 18.6274 0 12 0ZM9.36174 5.63858C10.0444 5.60751 10.2625 5.59991 12.0007 5.59991H11.9987C13.7374 5.59991 13.9547 5.60751 14.6374 5.63858C15.3187 5.66978 15.7841 5.77765 16.1921 5.93592C16.6134 6.09925 16.9694 6.31792 17.3254 6.67393C17.6814 7.02966 17.9001 7.38673 18.0641 7.80767C18.2214 8.21461 18.3294 8.67968 18.3614 9.36102C18.3921 10.0437 18.4001 10.2618 18.4001 12C18.4001 13.7381 18.3921 13.9557 18.3614 14.6384C18.3294 15.3195 18.2214 15.7847 18.0641 16.1918C17.9001 16.6126 17.6814 16.9696 17.3254 17.3254C16.9698 17.6814 16.6133 17.9006 16.1925 18.064C15.7853 18.2223 15.3197 18.3302 14.6383 18.3614C13.9557 18.3924 13.7382 18.4 11.9999 18.4C10.2619 18.4 10.0439 18.3924 9.3612 18.3614C8.68 18.3302 8.21479 18.2223 7.80759 18.064C7.38692 17.9006 7.02985 17.6814 6.67424 17.3254C6.31837 16.9696 6.0997 16.6126 5.9361 16.1916C5.77797 15.7847 5.6701 15.3196 5.63876 14.6383C5.60783 13.9556 5.6001 13.7381 5.6001 12C5.6001 10.2618 5.6081 10.0436 5.63863 9.36089C5.6693 8.67981 5.7773 8.21461 5.93597 7.80754C6.09997 7.38673 6.31864 7.02966 6.67464 6.67393C7.03038 6.31806 7.38745 6.09939 7.80839 5.93592C8.21533 5.77765 8.6804 5.66978 9.36174 5.63858Z" fill="#F6ECEA"/>
<path fill-rule="evenodd" clip-rule="evenodd" d="M11.4262 6.75355C11.5377 6.75338 11.6577 6.75343 11.7871 6.75349L12.0004 6.75355C13.7092 6.75355 13.9117 6.75969 14.5865 6.79035C15.2106 6.81889 15.5492 6.92315 15.7748 7.01076C16.0735 7.12676 16.2864 7.26543 16.5103 7.48943C16.7343 7.71343 16.873 7.92677 16.9892 8.22544C17.0768 8.45077 17.1812 8.78944 17.2096 9.41345C17.2403 10.0881 17.247 10.2908 17.247 11.9988C17.247 13.7068 17.2403 13.9095 17.2096 14.5842C17.1811 15.2082 17.0768 15.5468 16.9892 15.7722C16.8732 16.0708 16.7343 16.2835 16.5103 16.5074C16.2863 16.7314 16.0736 16.8701 15.7748 16.9861C15.5495 17.0741 15.2106 17.1781 14.5865 17.2066C13.9119 17.2373 13.7092 17.2439 12.0004 17.2439C10.2914 17.2439 10.0889 17.2373 9.41422 17.2066C8.79022 17.1778 8.45155 17.0735 8.22581 16.9859C7.92714 16.8699 7.71381 16.7313 7.4898 16.5073C7.2658 16.2833 7.12713 16.0704 7.01086 15.7716C6.92326 15.5463 6.81886 15.2076 6.79046 14.5836C6.7598 13.909 6.75366 13.7063 6.75366 11.9972C6.75366 10.2881 6.7598 10.0865 6.79046 9.41185C6.819 8.78784 6.92326 8.44917 7.01086 8.22357C7.12687 7.9249 7.2658 7.71156 7.4898 7.48756C7.71381 7.26356 7.92714 7.12489 8.22581 7.00862C8.45141 6.92062 8.79022 6.81662 9.41422 6.78795C10.0046 6.76129 10.2334 6.75329 11.4262 6.75195V6.75355ZM15.4169 7.81594C14.9929 7.81594 14.6489 8.15954 14.6489 8.58368C14.6489 9.00769 14.9929 9.35169 15.4169 9.35169C15.8409 9.35169 16.1849 9.00769 16.1849 8.58368C16.1849 8.15968 15.8409 7.81567 15.4169 7.81567V7.81594ZM8.71411 12.0001C8.71411 10.1851 10.1857 8.71351 12.0007 8.71344C13.8158 8.71344 15.287 10.1851 15.287 12.0001C15.287 13.8152 13.8159 15.2862 12.0008 15.2862C10.1857 15.2862 8.71411 13.8152 8.71411 12.0001Z" fill="#F6ECEA"/>
<path fill-rule="evenodd" clip-rule="evenodd" d="M12.0005 9.8667C13.1787 9.8667 14.1339 10.8218 14.1339 12.0001C14.1339 13.1782 13.1787 14.1334 12.0005 14.1334C10.8223 14.1334 9.86719 13.1782 9.86719 12.0001C9.86719 10.8218 10.8223 9.8667 12.0005 9.8667V9.8667Z" fill="#F6ECEA"/>
</svg>
