<svg width="85" height="32" viewBox="0 0 85 32" fill="none" xmlns="http://www.w3.org/2000/svg">
<path d="M55.3502 11.4195C55.0565 11.4873 54.8758 11.5777 54.695 11.5777C54.1302 11.6229 53.7236 11.9391 53.3847 12.3232C53.1136 12.6395 52.8651 12.9558 52.594 13.2721C52.5488 13.3398 52.481 13.385 52.3906 13.4302C52.3455 13.4528 52.2777 13.385 52.1873 13.3624C52.2551 13.1817 52.3003 13.0236 52.3681 12.8654C52.5036 12.5491 52.6617 12.2328 52.7747 11.9166C52.9328 11.4873 52.8651 11.0581 52.6166 10.674C52.5036 10.4707 52.3229 10.3577 52.097 10.3125C51.9162 10.2673 51.7807 10.177 51.7129 9.97365C51.7807 9.92847 51.871 9.8381 51.9614 9.81551C53.1362 9.52181 53.8365 8.7311 54.2206 7.62409C54.2432 7.53373 54.2884 7.42077 54.3335 7.3304C54.3561 7.28522 54.4013 7.28522 54.4691 7.24003C54.6498 7.28522 54.7176 7.42077 54.695 7.62409C54.6047 8.05334 54.5143 8.45999 54.3787 8.86665C54.1754 9.47663 54.3787 10.0188 54.695 10.5159C54.8758 10.7644 55.0791 11.0355 55.3502 11.4195Z" fill="#333333"/>
<path d="M84.4938 13.6335C84.3583 13.498 84.1323 13.5432 84.0646 13.7239C83.9968 13.9046 83.9516 14.108 83.8386 14.2661C83.2512 15.3279 82.5961 16.3446 81.8505 17.2934C81.6472 17.5419 81.4213 17.7001 81.0824 17.7227C81.0598 17.6323 81.0372 17.5871 81.0372 17.5194C81.0598 17.3838 81.0824 17.2708 81.1276 17.1353C81.2858 16.706 81.4213 16.2768 81.6246 15.8701C82.0765 14.9891 82.2346 14.0176 82.3476 13.0687C82.4153 12.4814 81.8731 12.1425 81.4439 12.3684C81.105 12.5491 80.8113 12.7299 80.5402 12.9784C80.1562 13.3173 79.7495 13.6561 79.388 14.0176C78.7555 14.6728 78.0325 15.2376 77.5355 16.0283C77.4903 16.0961 77.3999 16.209 77.2418 16.1187C77.2418 16.0509 77.2418 15.9605 77.2644 15.8927C77.4677 15.102 77.671 14.3113 77.8518 13.498C77.897 13.2721 77.9196 13.0236 77.9196 12.7976C77.9196 12.6169 77.7614 12.4814 77.5807 12.4814C76.79 12.5265 76.18 12.9106 75.7507 13.5658C75.5474 13.8821 75.4344 14.2661 75.2763 14.6276C75.0956 15.0342 74.96 15.4409 74.7793 15.825C74.6663 16.0509 74.4856 16.2542 74.3049 16.4349C73.9886 16.7286 73.6045 16.706 73.1979 16.5705C72.859 16.4349 72.7912 16.1638 72.746 15.8475C72.7234 15.7572 72.7234 15.6668 72.7234 15.599C72.7234 15.3279 72.7234 15.0794 72.7008 14.8083C72.6556 14.2661 72.7234 13.7239 72.5653 13.2043C72.362 12.4814 71.8875 12.0747 71.142 12.0521C70.9161 12.0521 70.6676 12.0521 70.419 12.0747C69.8768 12.1199 69.425 12.3232 69.0183 12.6847C68.815 12.8654 68.6117 13.0687 68.4084 13.2721C68.0469 13.6335 67.6402 13.9724 67.324 14.4017C66.7366 15.1924 66.2169 16.0509 65.8781 16.9997C65.7877 17.2257 65.6522 17.429 65.5618 17.5871C64.997 17.7905 64.6807 17.8356 64.1837 17.7905C63.5059 17.7453 63.0993 17.2934 63.0541 16.7512C63.0315 16.5253 62.9863 16.2768 62.9185 16.0509C62.8282 15.7346 62.9185 15.5087 63.1445 15.3053C63.4156 15.0568 63.7093 14.8309 63.9352 14.5372C64.4322 13.9724 64.9066 13.385 65.4036 12.8202C65.607 12.5717 65.8329 12.3458 66.0588 12.0973C66.5784 11.5099 66.9399 10.8096 67.324 10.1318C67.6402 9.567 67.9565 8.97961 68.1373 8.36963C68.4084 7.53373 68.4987 6.67523 68.5213 5.81674C68.5213 5.50046 68.4536 5.18417 68.3632 4.86788C68.3406 4.73233 68.2276 4.64196 68.0695 4.64196C67.9113 4.64196 67.7532 4.66456 67.6402 4.73233C67.3917 4.89047 67.1206 5.04862 66.8947 5.25195C66.4881 5.63601 66.1266 6.08785 65.7425 6.47191C64.884 7.30781 64.1837 8.25667 63.5511 9.2733C63.0993 10.0414 62.6474 10.8096 62.3537 11.6455C62.0826 12.391 61.7663 13.1365 61.5178 13.8821C61.2693 14.6502 60.9756 15.4409 61.0208 16.2768C61.0208 16.4123 60.9756 16.5253 60.9756 16.6609C60.2979 17.2934 59.462 17.5193 58.6035 17.6323C58.2872 17.6775 57.9709 17.5871 57.632 17.5419C57.4287 17.5193 57.2706 17.4064 57.1802 17.2031C57.135 17.1127 57.0898 16.9997 57.022 16.9094C56.7058 16.4349 56.7961 16.0057 57.1576 15.6216C57.248 15.5313 57.3383 15.4183 57.4061 15.3279C57.7676 14.8535 58.1516 14.4243 58.4453 13.9272C58.8294 13.2495 59.2586 12.5943 59.6653 11.9391C60.1849 11.1258 60.6367 10.3125 61.0434 9.45404C61.1564 9.22812 61.2919 9.0022 61.3823 8.75369C61.6986 7.80483 62.0375 6.83338 62.1956 5.81674C62.2634 5.45527 62.3086 5.0938 62.286 4.73233C62.2634 4.41604 62.0149 4.2579 61.7438 4.41604C61.3823 4.61937 61.0208 4.8227 60.7271 5.0938C59.9138 5.88452 59.1909 6.72042 58.5357 7.66928C58.3324 7.96297 58.1291 8.27926 57.9483 8.59555C57.4965 9.38626 57.0898 10.1996 56.638 10.9903C55.9828 12.1199 55.5762 13.3624 55.2825 14.6276C55.1243 15.2602 54.9888 15.8927 54.8306 16.5253C54.7403 16.9546 54.5143 17.2934 54.1303 17.4968C53.6333 17.7679 53.1588 18.0616 52.6618 18.3327C52.3229 18.5134 51.9841 18.6038 51.6 18.5812C51.487 18.5812 51.3515 18.536 51.2159 18.5134C51.2385 18.3778 51.2385 18.2649 51.2611 18.1519C51.5322 17.1805 51.9615 16.2994 52.7522 15.6216C53.0007 15.4183 53.2492 15.1924 53.4299 14.9439C53.7236 14.5598 53.5429 14.0854 53.0685 13.995C52.707 13.9498 52.3455 13.9046 51.9615 13.9046C51.4644 13.9272 50.9674 14.0176 50.493 14.108C50.0186 14.1757 49.7475 14.5598 49.8604 15.0342C49.9508 15.4183 49.9056 15.7346 49.7023 16.0961C49.2956 16.7964 49.0245 17.5194 48.8664 18.3327C48.7986 18.6941 48.9116 18.9652 49.1601 19.2137C49.3408 19.3719 49.5215 19.53 49.7249 19.6656C49.883 19.7559 50.0637 19.8237 50.2671 19.8689C50.4026 19.9141 50.5608 19.9141 50.7189 19.9367C51.1482 20.0271 51.5774 19.9819 52.0066 19.9141C52.5037 19.8237 52.9103 19.53 53.3848 19.3719C53.8818 19.1911 54.3562 19.0104 54.7629 18.6715C55.034 18.4456 55.3277 18.2875 55.6665 18.2197C56.3217 18.6715 57.0446 18.9426 57.8128 19.0782C58.1516 19.1234 58.4905 19.1911 58.8294 19.2137C58.9875 19.2363 59.1457 19.2137 59.2812 19.1912C60.0042 19.0104 60.7045 18.8523 61.3371 18.4456C61.4275 18.4004 61.5178 18.3552 61.6308 18.3101C61.7438 18.423 61.8115 18.5134 61.9019 18.6038C62.0149 18.7167 62.0826 18.8523 62.2182 18.92C62.8959 19.3041 63.5963 19.5526 64.387 19.4848C64.7711 19.4623 65.1551 19.3493 65.5166 19.2137C65.9007 19.0782 66.2621 18.9878 66.601 19.3267C67.4821 19.7334 68.3632 19.9141 69.312 19.5978C69.6057 19.4848 69.8994 19.3493 70.1931 19.1912C70.7127 18.9426 71.1872 18.5812 71.7294 18.3327C72.2942 18.0841 72.859 18.0616 73.4464 18.1519C73.7852 18.1971 73.9886 18.423 74.0112 18.7619C74.0112 18.8523 74.0112 18.9426 74.0112 19.033C74.0112 19.3493 74.1693 19.5526 74.463 19.6656C74.7115 19.7559 74.9148 19.7785 75.1633 19.6882C75.5474 19.53 75.9315 19.3945 76.2478 19.1234C76.9481 18.5586 77.7162 18.039 78.3714 17.429C78.4392 17.3612 78.507 17.2482 78.6651 17.3612C78.6651 17.4516 78.6425 17.5645 78.6425 17.6549C78.6425 18.0164 78.5973 18.4004 78.6425 18.7393C78.7103 19.3493 79.1621 19.8915 79.9302 19.8689C80.2691 19.8689 80.5854 19.8237 80.8791 19.6882C81.7602 19.1912 82.5509 18.6038 83.0253 17.6775C83.432 16.9094 83.8161 16.1412 84.1549 15.3505C84.2905 15.0116 84.4034 14.6728 84.539 14.3113C84.7197 13.995 84.6519 13.7917 84.4938 13.6335ZM63.7544 11.9391C64.1837 11.0807 64.6129 10.1996 65.1777 9.40886C65.6296 8.77628 66.0588 8.12112 66.4881 7.48854C66.5784 7.37558 66.6688 7.26262 66.7592 7.14966C66.8044 7.17226 66.8495 7.19485 66.8721 7.21744C66.8269 7.44336 66.7817 7.66928 66.714 7.8952C66.4429 8.75369 66.104 9.54441 65.5166 10.2222C65.3811 10.3577 65.2907 10.5385 65.2003 10.6966C64.9518 11.0581 64.7033 11.4195 64.387 11.7132C64.2289 11.8488 64.1159 12.0521 63.9804 12.2103C63.89 12.3232 63.777 12.4136 63.5963 12.5717C63.6189 12.278 63.6641 12.0973 63.7544 11.9391ZM57.2028 13.0913C57.3157 12.7976 57.4287 12.5265 57.5417 12.2328C57.8805 11.2162 58.3776 10.2448 58.8746 9.2959C59.1457 8.77628 59.5523 8.32444 59.9138 7.82742C60.0494 8.12112 59.9364 8.36963 59.846 8.59555C59.5523 9.38626 59.2586 10.177 58.8746 10.9225C58.5583 11.5551 58.1065 12.1199 57.7224 12.7073C57.5868 12.9106 57.4513 13.0913 57.3157 13.2721C57.135 13.2495 57.1802 13.1365 57.2028 13.0913ZM70.2157 17.429C69.8994 17.7679 69.538 17.9486 69.1087 18.039C68.928 18.0841 68.7247 18.0841 68.5439 18.0616C67.8436 17.9712 67.6177 17.4968 68.0017 16.9094C68.4084 16.2768 68.9506 15.7346 69.4702 15.215C69.6509 15.0342 69.8542 14.8761 70.0576 14.6954C70.1254 14.6502 70.1931 14.605 70.3513 14.5146C70.1028 15.2828 70.2383 15.9153 70.4642 16.5705C70.532 16.8868 70.4416 17.1579 70.2157 17.429Z" fill="#333333"/>
<path d="M50.5158 7.46595C50.0187 6.53968 49.3636 5.74897 48.4147 5.22935C47.9403 4.95825 47.4207 4.77752 46.9011 4.68715C46.5622 4.61937 46.2233 4.5516 45.8618 4.64196C45.7489 4.66456 45.5907 4.66456 45.4778 4.64196C45.0259 4.5516 44.5741 4.59678 44.1222 4.70974C43.9641 4.75492 43.7834 4.77752 43.6026 4.80011C43.196 4.84529 42.7893 4.89047 42.3827 4.95825C42.1793 4.98084 41.976 5.0938 41.7501 5.11639C40.5075 5.25195 39.4683 5.86193 38.3613 6.38154C38.045 6.53968 37.7965 6.7656 37.6384 7.10448C37.1639 8.12112 36.7573 9.16035 36.441 10.2448C36.4184 10.3351 36.441 10.4481 36.4636 10.6062C37.5254 10.2448 38.4291 9.63477 39.4457 9.36367C39.4683 9.40886 39.4909 9.43145 39.4909 9.43145C39.3779 9.8381 39.265 10.2673 39.1294 10.674C38.9035 11.4421 38.6776 12.2103 38.4743 12.9784C38.3161 13.5658 38.1806 14.1532 37.9998 14.718C37.6158 15.8475 37.3673 16.9997 37.0962 18.1519C37.0058 18.5586 37.0058 19.0104 36.9606 19.4397C36.938 19.643 37.0284 19.8011 37.1639 19.9593C37.5932 20.4563 38.0902 20.7952 38.7906 20.7048C39.265 20.6596 39.7394 20.5918 40.2138 20.5693C40.5979 20.5693 40.9368 20.4563 41.2757 20.3207C41.5016 20.2078 41.7501 20.14 41.9986 20.0496C42.1342 20.0045 42.2697 19.9367 42.4053 19.8463C42.9701 19.4848 43.5349 19.1234 44.0997 18.7845C44.2578 18.6715 44.4159 18.5586 44.5967 18.4908C45.0937 18.2649 45.5229 17.9486 45.9296 17.5871C46.7429 16.8868 47.5788 16.1864 48.3921 15.4861C48.5277 15.3731 48.618 15.2376 48.731 15.0794C48.9117 14.8083 49.1151 14.5598 49.2732 14.2661C49.4539 13.9724 49.6347 13.6787 49.8154 13.385C50.0413 12.9784 50.1769 12.5039 50.4028 12.0973C50.5835 11.7132 50.7191 11.3518 50.8094 10.9451C50.8998 10.5385 50.9902 10.1318 50.9902 9.72514C51.0128 8.93443 50.8998 8.1663 50.5158 7.46595ZM48.8665 10.1318C48.8214 10.7644 48.6406 11.3292 48.3469 11.9166C47.6692 13.2269 46.7881 14.3565 45.7037 15.3279C45.1163 15.8701 44.5289 16.4123 43.8511 16.8642C43.5574 17.0675 43.2412 17.2934 42.9249 17.429C42.3149 17.7227 41.7275 18.1293 41.0497 18.2875C40.869 18.3327 40.7335 18.3327 40.5527 18.2875C40.2816 18.2197 40.1461 18.0616 40.1235 17.7904C40.1009 17.2482 40.0105 16.7286 40.1009 16.1638C40.259 15.1698 40.372 14.1532 40.6657 13.1817C40.8464 12.5717 41.0272 11.9843 41.2079 11.3969C41.3434 10.9677 41.479 10.5385 41.6371 10.1092C41.8856 9.49922 42.1342 8.91183 42.4279 8.25667C43.0604 8.05334 43.6704 7.82742 44.2804 7.64669C45.0937 7.42077 45.9522 7.37558 46.7881 7.46595C47.4433 7.53373 47.9403 7.91779 48.3469 8.41481C48.7536 8.88924 48.9117 9.45404 48.8665 10.1318Z" fill="#333333"/>
<path d="M33.6392 19.4171C33.6392 20.2304 33.3229 20.8855 32.6452 21.3374C32.4645 21.4503 32.2385 21.4729 32.0352 21.5181C31.9674 21.5407 31.8545 21.5181 31.7867 21.4729C31.38 21.2922 31.1089 20.8178 31.1767 20.3659C31.2671 19.7785 31.5156 19.2589 31.8997 18.8071C32.1256 18.536 32.4645 18.423 32.8259 18.4004C33.3004 18.3552 33.5941 18.6263 33.6392 19.1008C33.6166 19.2137 33.6166 19.3267 33.6392 19.4171Z" fill="#333333"/>
<path d="M32.7357 4.52899C32.5098 4.34826 32.2387 4.19011 32.0128 4.00938C31.7191 3.78346 31.3576 3.78346 31.0188 3.69309C30.0699 3.44458 29.121 3.28644 28.127 3.28644C26.9748 3.28644 25.8452 3.3994 24.7382 3.73828C23.9927 3.9642 23.2471 4.21271 22.5016 4.41603C21.869 4.59677 21.3042 4.89046 20.6943 5.09379C19.655 5.45526 18.6836 5.9071 17.7121 6.35894C17.5088 6.4493 17.3281 6.63004 17.1473 6.76559C17.0344 6.85596 16.9666 7.0141 16.9666 7.17225C16.9892 7.87259 16.944 8.55035 17.0795 9.2507C17.1021 9.38625 17.1699 9.5218 17.2151 9.63476C17.4862 9.67995 17.6895 9.63476 17.8929 9.56699C18.661 9.34107 19.4065 9.04737 20.1295 8.7085C20.3554 8.59554 20.5813 8.43739 20.7846 8.30184C20.875 8.23406 20.9879 8.12111 20.9879 8.00815C21.0331 7.55631 21.372 7.39816 21.7109 7.24002C21.8013 7.19484 21.9142 7.17225 22.0046 7.33039C21.4398 8.64072 20.5135 9.79291 19.8584 11.0806C19.768 11.2614 19.655 11.3969 19.5647 11.5325C18.7288 11.7358 17.938 11.3066 17.1247 11.5099C17.0344 12.0295 16.7859 12.5039 16.7407 13.0235C17.2829 13.3172 17.8703 13.0687 18.5028 13.2269C18.3899 13.5658 18.2091 13.7691 18.051 13.995C17.6669 14.6276 17.2603 15.2376 16.8988 15.8701C16.3792 16.7964 16.0855 17.813 15.9048 18.8748C15.8144 19.3493 15.8144 19.8237 16.0403 20.2755C16.3114 20.7726 16.5825 21.2696 16.8988 21.7214C17.0795 21.9925 17.3055 22.2185 17.554 22.4218C18.3447 23.0318 19.2936 23.1899 20.2424 23.2803C20.7168 23.3255 21.2365 23.1673 21.7109 23.0769C22.1401 23.0092 22.5468 22.8962 22.976 22.7832C24.0604 22.4444 25.19 22.1507 26.2067 21.6311C26.8618 21.2922 27.4718 20.8855 28.0818 20.4789C28.1496 20.4337 28.1948 20.3659 28.2625 20.2981C28.5336 20.0722 28.7822 19.8463 29.0533 19.6204C29.7762 19.0104 30.5443 17.9712 30.4088 16.7512C30.4991 16.4123 30.3184 16.1412 30.2506 15.8249C30.1603 15.4409 29.9118 15.2376 29.6632 14.989C29.3244 14.6728 28.9855 14.4017 28.6014 14.1306C27.9463 13.6787 27.2233 13.3172 26.4552 13.0913C25.8226 12.9106 25.19 12.6395 24.5349 12.5039C24.309 12.4588 24.1282 12.3684 23.9475 12.2102C24.1282 12.0295 24.3767 11.9617 24.5801 11.9165C25.1674 11.781 25.7548 11.6003 26.3196 11.3743C26.7263 11.2162 27.1104 11.0355 27.517 10.8773C28.3529 10.6062 29.0984 10.1996 29.8666 9.77031C30.1603 9.58958 30.4765 9.45403 30.7702 9.2507C31.4254 8.79886 32.0354 8.25666 32.5776 7.66927C32.8035 7.44335 33.0068 7.17225 33.165 6.90114C33.4813 6.20079 33.5039 5.18416 32.7357 4.52899ZM25.6419 14.605C26.2293 14.8535 26.7037 15.2601 27.2233 15.6216C27.3363 15.712 27.4266 15.8475 27.517 15.9605C27.6752 16.1864 27.6526 16.3897 27.517 16.6157C27.2685 17.0675 26.8844 17.3386 26.4778 17.5645C25.6193 18.0615 24.7608 18.5586 23.8119 18.8974C23.5182 19.0104 23.2245 19.1685 22.9083 19.2363C22.6146 19.3041 22.2983 19.2589 22.0046 19.3041C21.5753 19.3719 21.1913 19.2815 20.8072 19.1234C20.3102 18.92 19.9487 18.5586 19.7002 18.0841C19.655 17.9938 19.5872 17.9034 19.5195 17.813C19.3613 17.5193 19.271 17.2256 19.3161 16.8868C19.4065 16.209 19.4743 15.5087 19.5872 14.8309C19.6776 14.3339 19.8358 13.8369 19.9939 13.2947C20.1069 13.2721 20.1746 13.2269 20.2424 13.2495C21.1461 13.4528 22.0724 13.498 22.976 13.7239C23.8797 13.995 24.7834 14.2209 25.6419 14.605ZM29.1662 7.55631C29.121 7.64667 29.0758 7.75963 29.0081 7.82741C28.5788 8.27925 28.1722 8.75368 27.6526 9.11515C26.8618 9.63476 26.0259 10.0866 25.1674 10.5158C24.0604 11.0581 22.9083 11.3517 21.7109 11.5551C21.4398 11.6003 21.1461 11.6454 20.8298 11.4647C21.1235 10.6966 21.5527 10.064 21.982 9.45403C22.3886 8.86664 22.8405 8.30184 23.3375 7.80482C23.6538 7.51112 23.9249 7.17225 24.196 6.83337C24.5349 6.40412 24.9867 6.22339 25.4837 6.1782C25.8678 6.13302 26.2519 6.08783 26.6359 6.04265C27.1781 5.97487 27.7203 6.08783 28.2399 6.22339C28.4207 6.26857 28.5788 6.31375 28.737 6.38153C29.2114 6.56226 29.3921 7.08188 29.1662 7.55631Z" fill="#333333"/>
<path d="M14.2332 19.7559C14.2106 20.3659 13.691 21.2244 13.081 21.4277C12.3806 21.6537 11.6351 20.9759 11.7932 20.2078C11.8836 19.8011 12.0192 19.4171 12.3129 19.1008C12.471 18.9426 12.6291 18.8071 12.8325 18.7167C13.2391 18.5134 13.578 18.6038 13.8717 18.9652C14.2106 19.3267 14.2332 19.3945 14.2332 19.7559Z" fill="#333333"/>
<path d="M15.724 15.9379C15.2947 16.0961 14.9107 16.2542 14.504 16.3897C14.0522 16.5479 13.5777 16.6383 13.1485 16.819C12.4707 17.1127 11.7478 17.2934 11.0474 17.4968C10.6408 17.6097 10.2115 17.7001 9.66933 17.813C9.85007 17.429 9.96303 17.1805 10.0986 16.932C10.6182 15.9379 11.1152 14.9213 11.68 13.9498C11.9285 13.5206 12.1544 13.0687 12.3126 12.6169C12.3578 12.5039 12.4481 12.391 12.5159 12.278C12.6063 12.1425 12.6966 11.9843 12.7644 11.8262C12.9452 11.4873 13.1033 11.1258 13.2614 10.7644C13.5777 10.0414 13.894 9.34108 14.1651 8.61814C14.391 8.00815 14.617 7.39817 14.7977 6.78819C15.0914 5.83933 15.3625 4.89047 15.6562 3.91902C15.8821 3.1509 15.9499 2.36018 15.9273 1.54687C15.9047 1.02726 15.6788 0.643194 15.2721 0.3495C14.8203 0.033213 14.3007 -0.0571546 13.7811 0.033213C13.3292 0.123581 12.8548 0.259132 12.4255 0.462459C11.5671 0.891705 10.7537 1.36614 9.98562 1.93093C9.57897 2.24722 9.17231 2.56351 8.74307 2.8572C8.15568 3.26385 7.65865 3.78347 7.13904 4.28049C6.77757 4.61937 6.55165 5.02602 6.30314 5.43268C5.64797 6.42672 5.08318 7.46595 4.83467 8.66332C4.72171 9.20553 4.65393 9.72514 4.67652 10.2673C4.69912 10.4707 4.69912 10.6514 4.69912 10.8547C4.63134 11.5099 4.67652 12.1651 4.78948 12.7976C4.99281 13.882 5.08318 14.9891 5.64797 15.9605C5.67057 16.4349 6.03204 16.6834 6.34832 16.932C6.77757 17.2708 7.09386 17.2708 7.50051 16.8868C7.70384 16.706 7.88457 16.4801 8.04272 16.2542C8.81084 15.1698 9.35305 13.9724 9.78229 12.7073C9.82748 12.6169 9.82748 12.5039 9.87266 12.391C9.91784 12.278 9.94044 12.1651 9.85007 12.0973C9.71452 12.0069 9.60156 12.1199 9.51119 12.2102C9.35305 12.391 9.1949 12.5491 9.01417 12.7299C8.94639 12.7976 8.83343 12.8654 8.74307 12.9106C8.60751 12.9784 8.47196 12.9106 8.42678 12.775C8.40419 12.7299 8.40419 12.6847 8.40419 12.6395C8.26864 11.7358 8.17827 10.8321 8.26864 9.92847C8.29123 9.63477 8.38159 9.34108 8.42678 9.02479C8.56233 8.30185 8.83343 7.64668 9.26268 7.08189C9.71452 6.4719 10.1889 5.88452 10.7086 5.31972C11.1152 4.89047 11.5896 4.50641 12.0641 4.12235C12.2674 3.9642 12.5159 3.89643 12.7644 3.80606C12.9226 3.73828 13.0807 3.80606 13.1711 3.94161C13.2614 4.05457 13.3518 4.21271 13.3518 4.34827C13.3518 4.75492 13.284 5.16157 13.2389 5.56823C13.1485 6.26858 12.9 6.90115 12.6966 7.55632C12.4255 8.36962 12.2448 9.22812 11.8833 10.0188C11.4541 10.9903 11.0474 11.9617 10.573 12.9106C10.0986 13.882 9.60156 14.8309 9.10454 15.8024C9.03676 15.9379 8.94639 16.0735 8.87862 16.1864C8.56233 16.6383 8.20086 17.0901 7.90717 17.5645C7.36496 18.4908 6.59684 19.2363 5.96426 20.0948C5.91908 20.14 5.87389 20.1852 5.82871 20.2304C5.0154 20.9759 4.26987 21.7892 3.52434 22.6025C2.89176 23.3029 2.37215 24.0484 1.89772 24.8617C1.69439 25.2458 1.46847 25.6072 1.28774 25.9913C0.881084 26.7594 0.519614 27.5276 0.316287 28.386C0.248511 28.6797 0.180735 28.9734 0.112959 29.2671C-0.0451838 29.7867 -0.0225919 30.3064 0.0903676 30.8034C0.203327 31.3004 0.497022 31.7297 0.994044 31.9104C1.49107 32.0911 2.01068 31.9782 2.43993 31.7522C2.84658 31.5263 3.25323 31.2552 3.47915 30.826C3.6147 30.5775 3.79544 30.3515 3.93099 30.103C4.40542 29.222 4.85726 28.3409 5.33169 27.4598C5.53502 27.0531 5.76093 26.6465 5.94167 26.2398C6.34832 25.2684 6.80016 24.2969 7.252 23.3481C7.70384 22.4218 8.22345 21.5181 8.83343 20.6822C9.01417 20.4337 9.1949 20.1852 9.44341 20.0045C9.87266 19.6882 10.3471 19.3945 10.7989 19.1234C11.4315 18.7393 12.0867 18.3778 12.7192 18.039C13.1033 17.8356 13.51 17.6549 13.894 17.4968C14.504 17.2256 15.1366 16.9771 15.7466 16.7286C15.9273 16.6383 16.0854 16.5253 16.0628 16.2768C16.0403 16.1186 15.9273 15.9831 15.724 15.9379ZM4.4506 24.5906C4.06654 25.6298 3.68248 26.6465 3.27583 27.6857C3.09509 28.1149 2.89176 28.5216 2.66584 28.9057C2.57548 29.0638 2.41733 29.1994 2.28178 29.3349C2.2366 29.3801 2.12364 29.3575 2.05586 29.3801C1.9429 29.0864 1.98809 28.8379 2.07845 28.5894C2.28178 28.0246 2.48511 27.4372 2.75621 26.895C3.20805 25.9913 3.72766 25.1102 4.33764 24.2969C4.38283 24.2517 4.42801 24.2291 4.54097 24.1614C4.51838 24.3421 4.49579 24.4776 4.4506 24.5906Z" fill="#333333"/>
</svg>
