<svg width="188" height="188" viewBox="0 0 188 188" fill="none" xmlns="http://www.w3.org/2000/svg">
<g id="play_circle_filled_white_24px" opacity="0.67">
<path id="icon/av/play_circle_filled_white_24px" fill-rule="evenodd" clip-rule="evenodd" d="M94 15.6666C50.76 15.6666 15.6667 50.76 15.6667 94C15.6667 137.24 50.76 172.333 94 172.333C137.24 172.333 172.333 137.24 172.333 94C172.333 50.76 137.24 15.6666 94 15.6666ZM94 156.667C59.455 156.667 31.3334 128.545 31.3334 93.9999C31.3334 59.4549 59.455 31.3333 94 31.3333C128.545 31.3333 156.667 59.4549 156.667 93.9999C156.667 128.545 128.545 156.667 94 156.667ZM125.333 94L78.3333 129.25V58.75L125.333 94Z" fill="white"/>
</g>
</svg>
