<svg width="40" height="40" viewBox="0 0 40 40" fill="none" xmlns="http://www.w3.org/2000/svg">
<g clip-path="url(#clip0)">
<path d="M36.9014 11.0259L23.6364 0.796875V8.12367H3.09833V13.9279H23.6364V21.2548L36.9014 11.0259Z" fill="#C9C9C9"/>
<path d="M3.09833 28.9743L16.3634 39.2032V31.8763H36.9014V26.0721H16.3634V18.7454L3.09833 28.9743Z" fill="#EDEDED"/>
<path d="M23.6374 22.0516C23.5177 22.0516 23.3974 22.0246 23.2859 21.9698C23.0134 21.8358 22.8407 21.5585 22.8407 21.2548V14.7247H3.09938C2.65938 14.7247 2.30258 14.368 2.30258 13.9279V8.12366C2.30258 7.68359 2.65938 7.32687 3.09938 7.32687H22.8406V0.796868C22.8406 0.493118 23.0133 0.215852 23.2859 0.0817898C23.5584 -0.0523508 23.8834 -0.0195383 24.1241 0.165852L37.3891 10.3948C37.5847 10.5457 37.6994 10.7787 37.6994 11.0259C37.6994 11.273 37.5848 11.506 37.3891 11.6569L24.124 21.8858C23.982 21.9953 23.8102 22.0516 23.6374 22.0516ZM3.89618 13.1311H23.6374C24.0774 13.1311 24.4342 13.4878 24.4342 13.9279V19.6341L35.5976 11.0259L24.4343 2.41757V8.12374C24.4343 8.56382 24.0775 8.92054 23.6375 8.92054H3.89618V13.1311Z" fill="#686E7E"/>
<path d="M16.3635 39.9999C16.1906 39.9999 16.0191 39.9437 15.8769 39.8342L2.61189 29.6053C2.41626 29.4544 2.30157 29.2214 2.30157 28.9742C2.30157 28.7271 2.41618 28.4941 2.61189 28.3432L15.8769 18.1143C16.1174 17.9288 16.4426 17.8963 16.7151 18.0303C16.9877 18.1642 17.1603 18.4416 17.1603 18.7453V25.2754H36.9016C37.3416 25.2754 37.6984 25.6321 37.6984 26.0722V31.8764C37.6984 32.3165 37.3416 32.6732 36.9016 32.6732H17.1602V39.2031C17.1602 39.5069 16.9876 39.7842 16.715 39.9182C16.6035 39.9731 16.4831 39.9999 16.3635 39.9999ZM4.40329 28.9742L15.5667 37.5825V31.8764C15.5667 31.4363 15.9235 31.0796 16.3635 31.0796H36.1047V26.8689H16.3634C15.9234 26.8689 15.5666 26.5122 15.5666 26.0721V20.3659L4.40329 28.9742Z" fill="#686E7E"/>
<path d="M13.6634 34.5653C13.4929 34.5653 13.3213 34.5109 13.1762 34.3985L12.9974 34.2602C12.6495 33.9909 12.5857 33.4903 12.855 33.1424C13.1245 32.7943 13.6252 32.7307 13.9728 32.9999L14.1516 33.1383C14.4995 33.4076 14.5633 33.9081 14.294 34.2561C14.137 34.459 13.9014 34.5653 13.6634 34.5653Z" fill="#686E7E"/>
<path d="M11.4313 32.837C11.2608 32.837 11.0892 32.7825 10.944 32.6702L7.63972 30.112C7.29175 29.8426 7.22808 29.3421 7.49746 28.9942C7.76691 28.6461 8.26722 28.5825 8.61527 28.8518L11.9196 31.41C12.2675 31.6794 12.3312 32.1799 12.0618 32.5279C11.9049 32.7307 11.6693 32.837 11.4313 32.837Z" fill="#686E7E"/>
</g>
<defs>
<clipPath id="clip0">
<rect width="40" height="40" fill="white"/>
</clipPath>
</defs>
</svg>
