<svg width="40" height="40" viewBox="0 0 40 40" fill="none" xmlns="http://www.w3.org/2000/svg">
<path d="M33.2341 14.1484H27.3436V28.6H39.2032V20.9554H33.2341V14.1484Z" fill="#C9C9C9"/>
<path d="M27.3433 8.57202H2.28912V23.4948H27.3433V8.57202Z" fill="#EDEDED"/>
<path d="M27.3433 23.4946H2.28912V28.5998H27.3433V23.4946Z" fill="#C9C9C9"/>
<path d="M7.39443 31.4275C8.95601 31.4275 10.2219 30.1615 10.2219 28.6C10.2219 27.0384 8.95601 25.7725 7.39443 25.7725C5.83284 25.7725 4.56693 27.0384 4.56693 28.6C4.56693 30.1615 5.83284 31.4275 7.39443 31.4275Z" fill="#EDEDED"/>
<path d="M33.1551 31.4275C34.7167 31.4275 35.9826 30.1615 35.9826 28.6C35.9826 27.0384 34.7167 25.7725 33.1551 25.7725C31.5936 25.7725 30.3276 27.0384 30.3276 28.6C30.3276 30.1615 31.5936 31.4275 33.1551 31.4275Z" fill="#EDEDED"/>
<path d="M33.2862 14.1487H33.2339V20.9556H39.2029V20.9032L33.2862 14.1487Z" fill="#EDEDED"/>
<path d="M29.6206 29.3968C29.9848 31.013 31.4309 32.2242 33.1555 32.2242C34.8802 32.2242 36.3263 31.013 36.6905 29.3968H39.2032C39.6433 29.3968 40 29.04 40 28.6V20.9554C40 20.7406 39.9147 20.5462 39.7766 20.4029C39.7924 20.3874 39.8025 20.378 39.8025 20.378L33.8858 13.6235C33.8858 13.6235 33.8713 13.6298 33.847 13.6396C33.7009 13.4638 33.4805 13.3517 33.2341 13.3517H28.1404V8.57219C28.1404 8.13219 27.7837 7.77539 27.3436 7.77539H2.28906C1.84898 7.77539 1.49227 8.13219 1.49227 8.57219V26.0753H0.796797C0.356719 26.0753 0 26.4321 0 26.8721C0 27.3121 0.356719 27.6689 0.796797 27.6689H1.49227V28.6001C1.49227 29.0401 1.84898 29.3969 2.28906 29.3969H3.8593C4.22344 31.013 5.66961 32.2243 7.39422 32.2243C9.11883 32.2243 10.565 31.013 10.9292 29.3969H29.6207V29.3968H29.6206ZM34.0309 16.2077L37.4918 20.1586H34.0309V16.2077ZM26.5468 22.698H3.08586V9.36891H26.5467V22.698H26.5468ZM3.08586 24.2916H26.5467V27.8031H10.9291C10.565 26.187 9.11883 24.9757 7.39414 24.9757C5.66953 24.9757 4.22336 26.187 3.85922 27.8031H3.08586V24.2916ZM7.39422 30.6306C6.27453 30.6306 5.36359 29.7196 5.36359 28.6C5.36359 27.4804 6.27453 26.5694 7.39422 26.5694C8.51391 26.5694 9.42492 27.4804 9.42492 28.6C9.42484 29.7196 8.51391 30.6306 7.39422 30.6306ZM33.1555 30.6306C32.0359 30.6306 31.1249 29.7196 31.1249 28.6C31.1249 27.4804 32.0359 26.5694 33.1555 26.5694C34.2752 26.5694 35.1862 27.4804 35.1862 28.6C35.1862 29.7196 34.2752 30.6306 33.1555 30.6306ZM28.1404 14.9452H32.4373V20.9553C32.4373 21.3953 32.794 21.7521 33.2341 21.7521H38.4063V27.8031H36.6905C36.3263 26.187 34.8802 24.9757 33.1555 24.9757C31.4309 24.9757 29.9847 26.187 29.6205 27.8031H28.1403V14.9452H28.1404Z" fill="#686E7E"/>
<path d="M24.6215 20.2388H17.9283C17.4882 20.2388 17.1315 20.5956 17.1315 21.0356C17.1315 21.4756 17.4882 21.8324 17.9283 21.8324H24.6215C25.0615 21.8324 25.4183 21.4756 25.4183 21.0356C25.4183 20.5956 25.0615 20.2388 24.6215 20.2388Z" fill="#686E7E"/>
<path d="M15.4583 20.2388H14.9802C14.5401 20.2388 14.1834 20.5956 14.1834 21.0356C14.1834 21.4756 14.5401 21.8324 14.9802 21.8324H15.4583C15.8984 21.8324 16.2551 21.4756 16.2551 21.0356C16.2551 20.5956 15.8984 20.2388 15.4583 20.2388Z" fill="#686E7E"/>
</svg>
