<svg width="188" height="71" viewBox="0 0 188 71" fill="none" xmlns="http://www.w3.org/2000/svg">
<path d="M122.808 25.3372C122.157 25.4876 121.756 25.6881 121.355 25.6881C120.102 25.7884 119.199 26.4901 118.447 27.3423C117.846 28.044 117.295 28.7458 116.693 29.4475C116.593 29.5979 116.442 29.6982 116.242 29.7984C116.142 29.8486 115.991 29.6982 115.791 29.6481C115.941 29.247 116.041 28.8962 116.192 28.5453C116.493 27.8435 116.843 27.1418 117.094 26.44C117.445 25.4876 117.295 24.5352 116.743 23.6831C116.493 23.232 116.092 22.9813 115.59 22.8811C115.189 22.7808 114.889 22.5803 114.738 22.1292C114.889 22.0289 115.089 21.8284 115.29 21.7783C117.896 21.1267 119.45 19.3723 120.302 16.9161C120.352 16.7156 120.453 16.465 120.553 16.2645C120.603 16.1642 120.703 16.1642 120.854 16.064C121.255 16.1642 121.405 16.465 121.355 16.9161C121.154 17.8685 120.954 18.7708 120.653 19.673C120.202 21.0264 120.653 22.2294 121.355 23.3322C121.756 23.8836 122.207 24.4851 122.808 25.3372Z" fill="#F6ECEA"/>
<path d="M187.471 30.2491C187.17 29.9484 186.669 30.0486 186.518 30.4496C186.368 30.8506 186.268 31.3018 186.017 31.6527C184.714 34.0086 183.26 36.2642 181.606 38.3695C181.155 38.9209 180.654 39.2718 179.902 39.3219C179.852 39.1214 179.802 39.0211 179.802 38.8708C179.852 38.57 179.902 38.3194 180.002 38.0186C180.353 37.0662 180.654 36.1138 181.105 35.2116C182.107 33.2567 182.458 31.1013 182.709 28.996C182.859 27.6927 181.656 26.9408 180.704 27.4421C179.952 27.8431 179.3 28.2441 178.699 28.7955C177.847 29.5474 176.944 30.2993 176.142 31.1013C174.739 32.5549 173.135 33.8081 172.032 35.5625C171.932 35.7128 171.731 35.9635 171.381 35.763C171.381 35.6126 171.381 35.4121 171.431 35.2617C171.882 33.5073 172.333 31.7529 172.734 29.9484C172.834 29.4471 172.884 28.8957 172.884 28.3945C172.884 27.9935 172.533 27.6927 172.132 27.6927C170.378 27.793 169.025 28.6451 168.072 30.0988C167.621 30.8005 167.37 31.6527 167.02 32.4547C166.619 33.3569 166.318 34.2592 165.917 35.1113C165.666 35.6126 165.265 36.0637 164.864 36.4647C164.162 37.1164 163.31 37.0662 162.408 36.7655C161.656 36.4647 161.506 35.8632 161.405 35.1615C161.355 34.961 161.355 34.7605 161.355 34.6101C161.355 34.0086 161.355 33.4572 161.305 32.8557C161.205 31.6527 161.355 30.4496 161.004 29.2967C160.553 27.6927 159.501 26.7905 157.847 26.7403C157.345 26.7403 156.794 26.7403 156.243 26.7905C155.04 26.8907 154.037 27.3418 153.135 28.1438C152.684 28.5449 152.232 28.996 151.781 29.4471C150.979 30.2491 150.077 31.001 149.375 31.9534C148.072 33.7078 146.919 35.6126 146.167 37.7179C145.967 38.2191 145.666 38.6703 145.465 39.0211C144.212 39.4723 143.511 39.5725 142.408 39.4723C140.904 39.372 140.002 38.3695 139.902 37.1665C139.851 36.6652 139.751 36.1138 139.601 35.6126C139.4 34.9108 139.601 34.4096 140.102 33.9584C140.704 33.4071 141.355 32.9058 141.856 32.2542C142.959 31.001 144.012 29.6977 145.115 28.4446C145.566 27.8932 146.067 27.392 146.568 26.8406C147.721 25.5373 148.523 23.9834 149.375 22.4796C150.077 21.2265 150.779 19.9232 151.18 18.5698C151.781 16.7152 151.982 14.8104 152.032 12.9056C152.032 12.2038 151.882 11.5021 151.681 10.8003C151.631 10.4996 151.38 10.2991 151.029 10.2991C150.679 10.2991 150.328 10.3492 150.077 10.4996C149.526 10.8504 148.924 11.2013 148.423 11.6525C147.521 12.5046 146.719 13.5071 145.866 14.3593C143.962 16.2139 142.408 18.3192 141.004 20.5749C140.002 22.2791 138.999 23.9834 138.348 25.8381C137.746 27.4922 137.044 29.1464 136.493 30.8005C135.942 32.5048 135.29 34.2592 135.39 36.1138C135.39 36.4146 135.29 36.6652 135.29 36.966C133.786 38.3695 131.932 38.8708 130.027 39.1214C129.325 39.2216 128.623 39.0211 127.871 38.9209C127.42 38.8708 127.069 38.6201 126.869 38.169C126.769 37.9685 126.668 37.7179 126.518 37.5174C125.816 36.4647 126.017 35.5123 126.819 34.6602C127.019 34.4597 127.22 34.2091 127.37 34.0086C128.172 32.9559 129.024 32.0035 129.676 30.9008C130.528 29.397 131.48 27.9433 132.383 26.4897C133.536 24.6852 134.538 22.8806 135.44 20.9759C135.691 20.4746 135.992 19.9733 136.192 19.422C136.894 17.3167 137.646 15.1613 137.997 12.9056C138.147 12.1036 138.247 11.3016 138.197 10.4996C138.147 9.79781 137.596 9.44693 136.994 9.79781C136.192 10.2489 135.39 10.7001 134.739 11.3016C132.934 13.056 131.33 14.9106 129.876 17.0159C129.425 17.6676 128.974 18.3693 128.573 19.0711C127.571 20.8255 126.668 22.63 125.666 24.3844C124.212 26.8907 123.31 29.6476 122.658 32.4547C122.307 33.8582 122.007 35.2617 121.656 36.6652C121.455 37.6176 120.954 38.3695 120.102 38.8206C118.999 39.4222 117.946 40.0738 116.844 40.6753C116.092 41.0763 115.34 41.2768 114.488 41.2267C114.237 41.2267 113.936 41.1264 113.636 41.0763C113.686 40.7756 113.686 40.5249 113.736 40.2743C114.337 38.1189 115.29 36.164 117.044 34.6602C117.596 34.2091 118.147 33.7078 118.548 33.1564C119.2 32.3043 118.799 31.2516 117.746 31.0511C116.944 30.9509 116.142 30.8506 115.29 30.8506C114.187 30.9008 113.084 31.1013 112.032 31.3018C110.979 31.4522 110.377 32.3043 110.628 33.3569C110.829 34.2091 110.728 34.9108 110.277 35.7128C109.375 37.2667 108.773 38.8708 108.423 40.6753C108.272 41.4773 108.523 42.0788 109.074 42.6302C109.475 42.9811 109.876 43.332 110.327 43.6327C110.678 43.8332 111.079 43.9836 111.53 44.0838C111.831 44.1841 112.182 44.1841 112.533 44.2342C113.485 44.4347 114.438 44.3345 115.39 44.1841C116.493 43.9836 117.395 43.332 118.448 42.9811C119.55 42.5801 120.603 42.1791 121.505 41.4272C122.107 40.9259 122.759 40.575 123.51 40.4247C124.964 41.4272 126.568 42.0287 128.272 42.3294C129.024 42.4297 129.776 42.5801 130.528 42.6302C130.879 42.6803 131.23 42.6302 131.531 42.5801C133.135 42.1791 134.688 41.8282 136.092 40.9259C136.292 40.8257 136.493 40.7254 136.744 40.6252C136.994 40.8758 137.145 41.0763 137.345 41.2768C137.596 41.5274 137.746 41.8282 138.047 41.9786C139.551 42.8307 141.105 43.3821 142.859 43.2317C143.711 43.1816 144.563 42.931 145.365 42.6302C146.217 42.3294 147.019 42.1289 147.771 42.8808C149.726 43.7831 151.681 44.1841 153.786 43.4823C154.438 43.2317 155.09 42.931 155.741 42.5801C156.894 42.0287 157.947 41.2267 159.15 40.6753C160.403 40.1239 161.656 40.0738 162.959 40.2743C163.711 40.3745 164.162 40.8758 164.213 41.6277C164.213 41.8282 164.213 42.0287 164.213 42.2292C164.213 42.931 164.563 43.3821 165.215 43.6327C165.766 43.8332 166.218 43.8833 166.769 43.6828C167.621 43.332 168.473 43.0312 169.175 42.4297C170.729 41.1766 172.433 40.0237 173.887 38.6703C174.037 38.5199 174.188 38.2693 174.538 38.5199C174.538 38.7204 174.488 38.971 174.488 39.1715C174.488 39.9735 174.388 40.8257 174.488 41.5776C174.639 42.931 175.641 44.134 177.345 44.0838C178.097 44.0838 178.799 43.9836 179.451 43.6828C181.406 42.5801 183.16 41.2768 184.213 39.2216C185.115 37.5174 185.967 35.8131 186.719 34.0587C187.02 33.3068 187.27 32.5549 187.571 31.7529C187.972 31.0511 187.822 30.6 187.471 30.2491ZM141.455 26.4897C142.408 24.5849 143.36 22.63 144.613 20.8756C145.616 19.4721 146.568 18.0184 147.521 16.6149C147.721 16.3643 147.922 16.1137 148.122 15.863C148.222 15.9132 148.323 15.9633 148.373 16.0134C148.273 16.5147 148.172 17.0159 148.022 17.5172C147.42 19.422 146.669 21.1764 145.365 22.6801C145.064 22.9809 144.864 23.3819 144.663 23.7328C144.112 24.5348 143.561 25.3368 142.859 25.9884C142.508 26.2892 142.257 26.7403 141.957 27.0912C141.756 27.3418 141.506 27.5423 141.105 27.8932C141.155 27.2416 141.255 26.8406 141.455 26.4897ZM126.919 29.0461C127.17 28.3945 127.42 27.793 127.671 27.1413C128.423 24.8857 129.525 22.7303 130.628 20.625C131.23 19.4721 132.132 18.4696 132.934 17.3668C133.235 18.0184 132.984 18.5698 132.784 19.0711C132.132 20.8255 131.48 22.5799 130.628 24.234C129.926 25.6376 128.924 26.8907 128.072 28.194C127.771 28.6451 127.47 29.0461 127.17 29.4471C126.769 29.397 126.869 29.1464 126.919 29.0461ZM155.791 38.6703C155.09 39.4222 154.288 39.8232 153.335 40.0237C152.934 40.1239 152.483 40.1239 152.082 40.0738C150.528 39.8733 150.027 38.8206 150.879 37.5174C151.781 36.1138 152.984 34.9108 154.137 33.7579C154.538 33.3569 154.989 33.0061 155.441 32.605C155.591 32.5048 155.741 32.4045 156.092 32.204C155.541 33.9083 155.842 35.3118 156.343 36.7655C156.493 37.4672 156.293 38.0688 155.791 38.6703Z" fill="#F6ECEA"/>
<path d="M112.082 16.5653C110.979 14.5101 109.526 12.7557 107.42 11.6028C106.368 11.0013 105.215 10.6003 104.062 10.3998C103.31 10.2494 102.558 10.099 101.756 10.2995C101.505 10.3497 101.155 10.3497 100.904 10.2995C99.9015 10.099 98.8989 10.1993 97.8964 10.4499C97.5455 10.5502 97.1445 10.6003 96.7435 10.6504C95.8413 10.7507 94.939 10.8509 94.0367 11.0013C93.5856 11.0514 93.1345 11.302 92.6332 11.3522C89.8763 11.6529 87.5705 13.0063 85.1144 14.1592C84.4126 14.5101 83.8612 15.0114 83.5103 15.7632C82.4577 18.0189 81.5554 20.3247 80.8537 22.7307C80.8035 22.9312 80.8537 23.1819 80.9038 23.5327C83.2597 22.7307 85.2647 21.3773 87.5204 20.7758C87.5705 20.8761 87.6206 20.9262 87.6206 20.9262C87.37 21.8285 87.1194 22.7809 86.8186 23.6831C86.3174 25.3874 85.8161 27.0917 85.365 28.7959C85.0141 30.0992 84.7133 31.4025 84.3123 32.6556C83.4602 35.1619 82.9088 37.7183 82.3073 40.2747C82.1068 41.177 82.1068 42.1795 82.0066 43.1319C81.9564 43.583 82.1569 43.9339 82.4577 44.2848C83.4101 45.3876 84.5128 46.1395 86.0667 45.939C87.1194 45.8387 88.172 45.6883 89.2247 45.6382C90.0768 45.6382 90.8287 45.3876 91.5806 45.0868C92.0818 44.8362 92.6332 44.6858 93.1846 44.4853C93.4854 44.3851 93.7861 44.2347 94.0869 44.0342C95.34 43.2322 96.5932 42.4302 97.8463 41.6783C98.1972 41.4276 98.5481 41.177 98.9491 41.0266C100.052 40.5254 101.004 39.8236 101.906 39.0216C103.711 37.4677 105.566 35.9138 107.37 34.3599C107.671 34.1093 107.871 33.8085 108.122 33.4576C108.523 32.8561 108.974 32.3047 109.325 31.6531C109.726 31.0015 110.127 30.3498 110.528 29.6982C111.029 28.7959 111.33 27.7433 111.831 26.841C112.232 25.9889 112.533 25.1869 112.734 24.2846C112.934 23.3824 113.135 22.4801 113.135 21.5778C113.185 19.8234 112.934 18.1192 112.082 16.5653ZM108.423 22.4801C108.323 23.8836 107.922 25.1368 107.27 26.44C105.766 29.3473 103.811 31.8536 101.405 34.009C100.102 35.212 98.7987 36.4151 97.2949 37.4176C96.6433 37.8687 95.9415 38.37 95.2398 38.6707C93.8864 39.3224 92.5831 40.2246 91.0793 40.5755C90.6783 40.6758 90.3776 40.6758 89.9766 40.5755C89.375 40.4251 89.0743 40.0742 89.0242 39.4727C88.974 38.2697 88.7735 37.1168 88.974 35.8637C89.3249 33.6581 89.5755 31.4025 90.2272 29.2471C90.6282 27.8937 91.0292 26.5904 91.4302 25.2871C91.731 24.3348 92.0317 23.3824 92.3826 22.43C92.934 21.0766 93.4854 19.7733 94.137 18.3197C95.5405 17.8685 96.8939 17.3673 98.2473 16.9663C100.052 16.465 101.957 16.3648 103.811 16.5653C105.265 16.7156 106.368 17.5678 107.27 18.6705C108.172 19.7232 108.523 20.9763 108.423 22.4801Z" fill="#F6ECEA"/>
<path d="M74.6376 43.0814C74.6376 44.886 73.9358 46.3396 72.4321 47.3421C72.0311 47.5928 71.5298 47.6429 71.0787 47.7431C70.9283 47.7933 70.6777 47.7431 70.5273 47.6429C69.625 47.2419 69.0235 46.1892 69.1739 45.1867C69.3744 43.8834 69.9258 42.7306 70.7779 41.728C71.2792 41.1265 72.0311 40.8759 72.8331 40.8258C73.8857 40.7255 74.5374 41.327 74.6376 42.3797C74.5875 42.6303 74.5875 42.8809 74.6376 43.0814Z" fill="#F6ECEA"/>
<path d="M72.6319 10.0484C72.1306 9.64742 71.5291 9.29654 71.0279 8.89553C70.3762 8.39427 69.5742 8.39427 68.8223 8.19377C66.717 7.64239 64.6118 7.2915 62.4062 7.2915C59.8498 7.2915 57.3435 7.54213 54.8874 8.29402C53.2332 8.79528 51.5791 9.34666 49.9249 9.79779C48.5214 10.1988 47.2682 10.8504 45.9149 11.3016C43.6091 12.1036 41.4537 13.1061 39.2982 14.1086C38.8471 14.3091 38.4461 14.7101 38.0451 15.0109C37.7945 15.2114 37.6441 15.5623 37.6441 15.9131C37.6942 17.467 37.594 18.9708 37.8947 20.5247C37.9449 20.8255 38.0952 21.1262 38.1955 21.3769C38.797 21.4771 39.2481 21.3769 39.6993 21.2265C41.4035 20.7252 43.0577 20.0736 44.6617 19.3217C45.163 19.0711 45.6642 18.7202 46.1153 18.4194C46.3159 18.2691 46.5665 18.0184 46.5665 17.7678C46.6667 16.7653 47.4186 16.4144 48.1705 16.0635C48.371 15.9633 48.6216 15.9131 48.8221 16.264C47.569 19.1713 45.5138 21.7277 44.0602 24.5849C43.8597 24.9859 43.6091 25.2867 43.4086 25.5874C41.5539 26.0385 39.7995 25.0862 37.995 25.5373C37.7945 26.6902 37.2431 27.7428 37.1428 28.8957C38.3459 29.5474 39.6491 28.996 41.0526 29.3468C40.802 30.0987 40.401 30.5499 40.0501 31.0511C39.198 32.4547 38.2957 33.808 37.4937 35.2116C36.3408 37.2667 35.6892 39.5224 35.2882 41.8783C35.0877 42.9309 35.0877 43.9836 35.5889 44.9861C36.1904 46.0889 36.792 47.1916 37.4937 48.1941C37.8947 48.7957 38.396 49.2969 38.9474 49.748C40.7018 51.1014 42.8071 51.4523 44.9123 51.6528C45.965 51.7531 47.1179 51.4022 48.1705 51.2017C49.1229 51.0513 50.0252 50.8007 50.9776 50.5501C53.3836 49.7982 55.8899 49.1465 58.1455 47.9936C59.5992 47.2418 60.9526 46.3395 62.306 45.4372C62.4564 45.337 62.5566 45.1866 62.707 45.0362C63.3085 44.535 63.8599 44.0337 64.4614 43.5324C66.0654 42.179 67.7697 39.8733 67.4689 37.1665C67.6694 36.4146 67.2684 35.8131 67.1181 35.1113C66.9176 34.2592 66.3662 33.808 65.8148 33.2567C65.0629 32.5549 64.311 31.9534 63.4589 31.3519C62.0052 30.3494 60.4012 29.5474 58.6969 29.0461C57.2934 28.6451 55.8899 28.0436 54.4362 27.7428C53.935 27.6426 53.534 27.4421 53.133 27.0912C53.534 26.6902 54.0854 26.5398 54.5365 26.4396C55.8398 26.1388 57.143 25.7378 58.3962 25.2365C59.2984 24.8857 60.1506 24.4846 61.0528 24.1338C62.9075 23.5323 64.5616 22.63 66.2659 21.6776C66.9175 21.2766 67.6193 20.9758 68.2709 20.5247C69.7246 19.5222 71.078 18.3192 72.281 17.0159C72.7823 16.5146 73.2334 15.9131 73.5843 15.3116C74.286 13.7577 74.3362 11.5021 72.6319 10.0484ZM56.8924 32.4045C58.1957 32.9559 59.2483 33.8582 60.4012 34.6602C60.6518 34.8607 60.8523 35.1614 61.0528 35.4121C61.4037 35.9133 61.3536 36.3645 61.0528 36.8657C60.5014 37.8682 59.6493 38.4697 58.747 38.971C56.8423 40.0738 54.9375 41.1765 52.8322 41.9284C52.1806 42.1791 51.5289 42.5299 50.8272 42.6803C50.1755 42.8307 49.4738 42.7304 48.8221 42.8307C47.8698 42.9811 47.0176 42.7806 46.1655 42.4297C45.0627 41.9785 44.2607 41.1765 43.7093 40.1239C43.6091 39.9234 43.4587 39.7229 43.3083 39.5224C42.9574 38.8707 42.7569 38.2191 42.8572 37.4672C43.0577 35.9635 43.2081 34.4096 43.4587 32.9058C43.6592 31.803 44.0101 30.7002 44.3609 29.4972C44.6116 29.4471 44.762 29.3468 44.9123 29.397C46.9174 29.8481 48.9725 29.9484 50.9776 30.4496C52.9826 31.0511 54.9876 31.5524 56.8924 32.4045ZM64.712 16.7653C64.6118 16.9658 64.5115 17.2164 64.3611 17.3668C63.4087 18.3693 62.5065 19.4219 61.3536 20.224C59.5992 21.3769 57.7445 22.3794 55.8398 23.3318C53.3836 24.5348 50.8272 25.1864 48.1705 25.6375C47.569 25.7378 46.9174 25.838 46.2156 25.437C46.8672 23.7328 47.8196 22.3292 48.772 20.9758C49.6743 19.6726 50.6768 18.4194 51.7796 17.3167C52.4813 16.665 53.0828 15.9131 53.6843 15.1613C54.4362 14.2089 55.4387 13.8079 56.5415 13.7076C57.3937 13.6074 58.2458 13.5071 59.0979 13.4068C60.3009 13.2565 61.504 13.5071 62.6569 13.8079C63.0579 13.9081 63.4087 14.0084 63.7596 14.1587C64.8123 14.5597 65.2133 15.7126 64.712 16.7653Z" fill="#F6ECEA"/>
<path d="M31.58 43.8332C31.5299 45.1866 30.377 47.0913 29.0236 47.5425C27.4697 48.0437 25.8155 46.54 26.1664 44.8357C26.3669 43.9334 26.6677 43.0813 27.3193 42.3795C27.6702 42.0286 28.0211 41.7279 28.4722 41.5274C29.3745 41.0762 30.1264 41.2768 30.778 42.0788C31.5299 42.8808 31.58 43.0312 31.58 43.8332Z" fill="#F6ECEA"/>
<path d="M34.8875 35.3622C33.9352 35.7131 33.083 36.064 32.1808 36.3648C31.1782 36.7156 30.1256 36.9161 29.1732 37.3172C27.6694 37.9688 26.0654 38.3698 24.5115 38.8209C23.6092 39.0716 22.6569 39.2721 21.4538 39.5227C21.8548 38.6705 22.1055 38.1192 22.4062 37.5678C23.5591 35.3622 24.6619 33.1066 25.915 30.9512C26.4664 29.9988 26.9677 28.9963 27.3185 27.9938C27.4188 27.7431 27.6193 27.4925 27.7697 27.2419C27.9702 26.9411 28.1707 26.5902 28.3211 26.2394C28.7221 25.4875 29.073 24.6855 29.4238 23.8834C30.1256 22.2794 30.8274 20.7255 31.4289 19.1215C31.9301 17.7681 32.4314 16.4147 32.8324 15.0613C33.484 12.956 34.0855 10.8507 34.7372 8.69533C35.2384 6.99105 35.3888 5.23665 35.3387 3.43212C35.2885 2.27923 34.7873 1.42709 33.885 0.775452C32.8825 0.0736914 31.7296 -0.126812 30.5767 0.0736914C29.5742 0.274195 28.5216 0.574949 27.5692 1.02608C25.6644 1.97847 23.8599 3.03111 22.1556 4.28426C21.2533 4.98602 20.3511 5.68778 19.3987 6.33941C18.0954 7.24168 16.9926 8.39457 15.8397 9.49734C15.0377 10.2492 14.5365 11.1515 13.9851 12.0538C12.5314 14.2593 11.2783 16.5651 10.7269 19.2217C10.4763 20.4248 10.3259 21.5777 10.376 22.7807C10.4262 23.2318 10.4262 23.6328 10.4262 24.0839C10.2758 25.5376 10.376 26.9912 10.6267 28.3948C11.0778 30.8008 11.2783 33.257 12.5314 35.4124C12.5816 36.465 13.3836 37.0164 14.0853 37.5678C15.0377 38.3197 15.7395 38.3197 16.6418 37.4675C17.0929 37.0665 17.4939 36.5653 17.8448 36.064C19.5491 33.658 20.7521 31.0013 21.7045 28.1943C21.8047 27.9938 21.8047 27.7431 21.905 27.4925C22.0052 27.2419 22.0553 26.9912 21.8548 26.8409C21.5541 26.6404 21.3035 26.891 21.103 27.0915C20.7521 27.4925 20.4012 27.8434 20.0002 28.2444C19.8498 28.3948 19.5992 28.5451 19.3987 28.6454C19.0979 28.7958 18.7972 28.6454 18.6969 28.3446C18.6468 28.2444 18.6468 28.1441 18.6468 28.0439C18.346 26.0388 18.1455 24.0338 18.346 22.0288C18.3962 21.3771 18.5967 20.7255 18.6969 20.0238C18.9977 18.4197 19.5992 16.9661 20.5516 15.7129C21.5541 14.3595 22.6067 13.0563 23.7596 11.8031C24.6619 10.8507 25.7145 9.9986 26.7672 9.14646C27.2183 8.79558 27.7697 8.6452 28.3211 8.4447C28.6719 8.29432 29.0228 8.4447 29.2233 8.74545C29.4238 8.99608 29.6243 9.34696 29.6243 9.64772C29.6243 10.55 29.474 11.4522 29.3737 12.3545C29.1732 13.9084 28.6218 15.3119 28.1707 16.7656C27.5692 18.5701 27.1682 20.4749 26.3662 22.2293C25.4138 24.3847 24.5115 26.5401 23.4589 28.6454C22.4062 30.8008 21.3035 32.9061 20.2007 35.0615C20.0503 35.3622 19.8498 35.663 19.6994 35.9136C18.9977 36.9161 18.1957 37.9187 17.544 38.9713C16.341 41.0265 14.6367 42.6806 13.2332 44.5854C13.133 44.6856 13.0327 44.7859 12.9325 44.8861C11.1279 46.5403 9.47377 48.3448 7.81962 50.1493C6.4161 51.7032 5.26321 53.3574 4.21057 55.1619C3.75943 56.0141 3.25818 56.8161 2.85717 57.6682C1.95491 59.3725 1.15289 61.0768 0.701761 62.9815C0.551384 63.6332 0.401006 64.2848 0.250629 64.9365C-0.100252 66.0893 -0.0501258 67.2422 0.200503 68.345C0.451132 69.4478 1.10277 70.4002 2.20553 70.8012C3.3083 71.2022 4.46119 70.9515 5.41358 70.4503C6.31585 69.949 7.21811 69.3475 7.71937 68.3951C8.02012 67.8438 8.42113 67.3425 8.72188 66.7911C9.77453 64.8362 10.777 62.8813 11.8297 60.9264C12.2808 60.0241 12.7821 59.1219 13.1831 58.2196C14.0853 56.0642 15.0879 53.9088 16.0904 51.8035C17.0929 49.7483 18.2458 47.7433 19.5992 45.8887C20.0002 45.3373 20.4012 44.7859 20.9526 44.3849C21.905 43.6831 22.9576 43.0315 23.9601 42.43C25.3636 41.5778 26.8173 40.7758 28.2208 40.0239C29.073 39.5728 29.9752 39.1718 30.8274 38.8209C32.1807 38.2194 33.5843 37.668 34.9377 37.1166C35.3387 36.9161 35.6896 36.6655 35.6394 36.1141C35.5893 35.7632 35.3387 35.4625 34.8875 35.3622ZM9.87478 54.5604C9.02264 56.8662 8.1705 59.1219 7.26824 61.4277C6.86723 62.38 6.4161 63.2823 5.91484 64.1344C5.71434 64.4853 5.36346 64.7861 5.0627 65.0868C4.96245 65.1871 4.71182 65.137 4.56145 65.1871C4.31082 64.5354 4.41107 63.9841 4.61157 63.4327C5.0627 62.1795 5.51384 60.8763 6.11535 59.6732C7.11786 57.6682 8.27075 55.7133 9.62415 53.9088C9.7244 53.8085 9.82465 53.7584 10.0753 53.608C10.0252 54.009 9.97503 54.3098 9.87478 54.5604Z" fill="#F6ECEA"/>
</svg>
